<svg width="40" height="40" viewBox="0 0 40 40" fill="none" xmlns="http://www.w3.org/2000/svg">
<path d="M35.5312 8.63281C35.3359 8.44141 33.5234 6.75781 30.5859 5.89844C28.0625 5.16406 24.2852 4.93359 20.0859 7.66797C19.2344 7.08594 17.9648 6.37109 16.3633 5.89844C13.5859 5.08984 9.28906 4.89453 4.57812 8.58594C4.10547 8.95312 3.82812 9.51953 3.82812 10.1172V27.0586C3.82812 27.7461 4.19141 28.3828 4.78516 28.7344C5.38281 29.0859 6.11328 29.0938 6.71875 28.7578C6.76172 28.7344 11.3203 26.3984 19.3789 28.9141C19.5703 28.9766 19.7617 29.0039 19.957 29.0039H19.9766C20.3086 29.0078 20.6445 28.9258 20.9453 28.7578C20.9883 28.7344 25.5469 26.3984 33.6055 28.9141C33.7969 28.9766 33.9883 29.0039 34.1836 29.0039C34.5938 29.0039 35 28.8711 35.3359 28.625C35.8359 28.2578 36.1289 27.6758 36.1289 27.0586V10.0352C36.1289 9.50781 35.9141 9 35.5312 8.63281ZM18.0117 24.5195C15.8516 24.0352 13.9258 23.8516 12.2617 23.8516C10.4219 23.8516 8.89844 24.0742 7.71875 24.3438V11.1016C10.168 9.42188 12.6602 8.91797 15.1289 9.59375C16.4141 9.94531 17.418 10.5508 18.0117 10.9687V24.5195ZM32.2383 24.5195C30.0781 24.0352 28.1523 23.8516 26.4883 23.8516C24.6484 23.8516 23.125 24.0742 21.9453 24.3438V11.1016C24.3945 9.42188 26.8867 8.91797 29.3555 9.59375C30.6406 9.94531 31.6445 10.5508 32.2383 10.9687V24.5195Z" fill="#0D6EFD"/>
<path d="M36.1016 33.2266C35.8398 34.0625 35.0742 34.5937 34.2461 34.5937C34.0547 34.5937 33.8555 34.5664 33.6641 34.5039C25.6055 31.9883 21.0469 34.3242 21.0039 34.3477C20.6797 34.5312 20.3203 34.6094 19.9688 34.5898C19.9453 34.5937 19.9219 34.5937 19.8945 34.5937C19.7031 34.5937 19.5039 34.5664 19.3125 34.5039C11.2539 31.9883 6.69922 34.3242 6.65234 34.3477C5.71484 34.8711 4.52734 34.5312 4.00781 33.5898C3.48438 32.6523 3.82422 31.4687 4.76563 30.9453C4.99609 30.8164 10.4688 27.8711 19.8516 30.6016C21.707 29.8516 26.9453 28.332 34.8164 30.7891C35.8516 31.1133 36.4219 32.2031 36.1016 33.2266Z" fill="black"/>
</svg>
